<svg xmlns="http://www.w3.org/2000/svg" xmlns:xlink="http://www.w3.org/1999/xlink" width="500" zoomAndPan="magnify" viewBox="0 0 375 374.999991" height="500" preserveAspectRatio="xMidYMid meet" version="1.0"><path fill="#ffffff" d="M 331.171875 82.089844 C 337.675781 77.8125 339.492188 69.140625 335.214844 62.636719 C 330.9375 56.132812 322.265625 54.316406 315.761719 58.59375 L 254.414062 98.730469 C 234.257812 95.332031 211.523438 93.75 187.5 93.75 C 104.648438 93.75 37.5 112.5 37.5 159.375 L 37.5 253.125 C 37.5 271.464844 53.554688 287.578125 79.6875 299.238281 L 79.6875 239.0625 C 79.6875 231.269531 85.957031 225 93.75 225 C 101.542969 225 107.8125 231.269531 107.8125 239.0625 L 107.8125 309.023438 C 127.148438 314.238281 149.472656 317.519531 173.4375 318.457031 L 173.4375 257.8125 C 173.4375 250.019531 179.707031 243.75 187.5 243.75 C 195.292969 243.75 201.5625 250.019531 201.5625 257.8125 L 201.5625 318.457031 C 225.527344 317.519531 247.851562 314.238281 267.1875 309.023438 L 267.1875 239.0625 C 267.1875 231.269531 273.457031 225 281.25 225 C 289.042969 225 295.3125 231.269531 295.3125 239.0625 L 295.3125 299.238281 C 321.445312 287.578125 337.5 271.464844 337.5 253.125 L 337.5 159.375 C 337.5 135.292969 319.804688 118.652344 291.328125 108.164062 L 331.113281 82.089844 Z M 217.617188 122.8125 L 179.765625 147.597656 C 173.261719 151.875 171.445312 160.546875 175.722656 167.050781 C 180 173.554688 188.671875 175.371094 195.175781 171.09375 L 260.273438 128.4375 C 268.886719 130.3125 276.621094 132.539062 283.359375 135.175781 C 306.09375 144.023438 309.375 153.105469 309.375 159.375 C 309.375 159.84375 307.792969 169.453125 282.421875 180.410156 C 259.628906 190.253906 226.171875 196.875 187.5 196.875 C 148.828125 196.875 115.371094 190.253906 92.578125 180.410156 C 67.207031 169.453125 65.625 159.84375 65.625 159.375 C 65.625 153.164062 68.90625 144.023438 91.640625 135.175781 C 114.082031 126.445312 147.539062 121.875 187.5 121.875 C 198.046875 121.875 208.066406 122.167969 217.617188 122.8125 Z M 217.617188 122.8125 " fill-opacity="1" fill-rule="nonzero"/></svg>